<svg width="212" height="60" viewBox="0 0 212 60" fill="none" xmlns="http://www.w3.org/2000/svg">
<path d="M10.911 0.210376C6.57187 2.02245 1.80176 7.14178 0.295201 13.5677C-1.61274 21.7095 6.32708 25.1524 6.97831 24.0235C7.7448 22.6971 5.55559 22.2485 5.10496 18.0241C4.52255 12.568 7.06499 6.47142 10.2647 3.79641C10.8595 3.29943 10.8312 3.99115 10.8312 5.27064C10.8312 7.55866 10.7045 28.0983 10.7045 32.385C10.7045 38.1854 10.4644 40.017 10.0331 41.8269C9.5961 43.6611 8.89359 44.9004 9.42591 45.3778C10.0207 45.9118 12.56 44.6416 14.0301 42.5946C15.7929 40.1396 16.41 37.1912 16.5208 33.9893C16.6546 30.1295 16.6489 24.0048 16.6546 20.5113C16.66 17.3072 16.7087 7.92511 16.5983 2.28491C16.5712 0.901487 12.7256 -0.549929 10.9108 0.208693L10.911 0.210376ZM164.992 27.3557C164.852 30.3712 164.183 32.7282 163.353 34.3907C161.745 37.6093 158.41 38.6087 156.993 33.9819C156.222 31.4598 156.186 27.2477 156.74 23.7283C157.305 20.1429 158.882 17.4352 161.494 17.6794C164.07 17.9208 165.276 21.2323 164.992 27.3556V27.3557ZM121.566 46.0645C121.531 51.0749 120.74 55.468 119.045 56.7439C116.641 58.5531 113.41 57.196 114.079 53.5399C114.671 50.3045 117.471 47.0004 121.572 42.9633C121.572 42.9633 121.581 43.884 121.566 46.0645H121.566ZM120.909 27.3265C120.762 30.073 120.048 32.8321 119.27 34.3911C117.663 37.6096 114.303 38.6158 112.91 33.9823C111.958 30.8164 112.186 26.719 112.657 24.1373C113.269 20.7876 114.75 17.6801 117.411 17.6801C119.998 17.6801 121.274 20.5117 120.909 27.3267V27.3265ZM95.7521 27.2845C95.5944 30.1933 95.0256 32.625 94.1128 34.3911C92.4614 37.5875 89.1942 38.6012 87.7534 33.9823C86.7146 30.6517 87.0682 26.1103 87.5003 23.657C88.1416 20.0165 89.7473 17.4355 92.2541 17.6801C94.829 17.9311 96.0807 21.2327 95.7521 27.2847V27.2845ZM211.041 30.6822C210.412 30.6822 210.124 31.3295 209.887 32.4191C209.062 36.2077 208.196 37.0631 207.079 37.0631C205.831 37.0631 204.709 35.1872 204.421 31.4319C204.194 28.479 204.231 23.0426 204.52 17.6349C204.579 16.5238 204.272 15.4245 201.285 14.3419C200 13.8762 198.132 13.1905 197.201 15.4309C194.573 21.7603 193.544 26.7853 193.303 28.8266C193.29 28.9323 193.16 28.9539 193.137 28.707C192.983 27.0721 192.638 24.101 192.596 17.8589C192.587 16.6409 192.329 15.6043 190.981 14.7555C190.107 14.2048 187.452 13.2308 186.496 14.3896C185.668 15.3373 184.709 17.8877 183.712 20.9109C182.902 23.368 182.338 25.0302 182.338 25.0302C182.338 25.0302 182.349 18.4003 182.358 15.8855C182.363 14.9368 181.71 14.6206 181.514 14.5633C180.629 14.307 178.884 13.8787 178.144 13.8787C177.23 13.8787 177.007 14.3882 177.007 15.1304C177.007 15.2276 176.863 23.8593 176.863 29.895C176.863 30.1572 176.863 30.4432 176.865 30.7471C176.36 33.5211 174.721 37.2868 172.939 37.2868C171.155 37.2868 170.313 35.7125 170.313 28.517C170.313 24.3194 170.44 22.4941 170.502 19.4582C170.538 17.7095 170.607 16.3666 170.604 16.0619C170.59 15.1274 168.971 14.6564 168.217 14.4823C167.46 14.3068 166.802 14.2388 166.288 14.268C165.561 14.3089 165.046 14.7849 165.046 15.4396C165.046 15.7906 165.05 16.4581 165.05 16.4581C164.114 14.9896 162.607 13.9675 161.605 13.6713C158.905 12.8714 156.088 13.5802 153.963 16.5468C152.274 18.9039 151.256 21.5735 150.855 25.4091C150.562 28.2132 150.658 31.0568 151.178 33.4616C150.549 36.1751 149.381 37.2868 148.103 37.2868C146.246 37.2868 144.9 34.2635 145.056 29.0347C145.159 25.5955 145.849 23.1819 146.603 19.6903C146.925 18.2018 146.663 17.4225 146.008 16.6756C145.407 15.9907 144.127 15.6407 142.287 16.0711C140.976 16.378 139.101 16.708 137.386 16.9615C137.386 16.9615 137.49 16.5496 137.575 15.8234C138.021 12.0148 133.872 12.3238 132.549 13.5403C131.759 14.2665 131.221 15.1231 131.017 16.6632C130.693 19.1071 132.691 20.2599 132.691 20.2599C132.036 23.2535 130.429 27.1642 128.77 29.9916C127.882 31.5064 127.202 32.629 126.324 33.8222C126.321 33.3779 126.319 32.9336 126.317 32.4914C126.297 26.1976 126.381 21.2441 126.418 19.4587C126.454 17.7101 126.524 16.4028 126.52 16.0981C126.511 15.4146 126.11 15.1564 125.278 14.8296C124.543 14.5406 123.673 14.3405 122.77 14.2707C121.631 14.1821 120.945 14.7848 120.963 15.4975C120.966 15.6321 120.966 16.4584 120.966 16.4584C120.03 14.9898 118.523 13.9678 117.521 13.6715C114.821 12.872 112.004 13.5808 109.879 16.547C108.19 18.9041 107.084 22.2117 106.771 25.3802C106.479 28.3332 106.533 30.8427 106.931 32.9567C106.502 35.0735 105.267 37.2871 103.872 37.2871C102.088 37.2871 101.073 35.7127 101.073 28.5173C101.073 24.3197 101.199 22.4944 101.261 19.4587C101.297 17.7101 101.367 16.3669 101.363 16.0625C101.35 15.128 99.7298 14.657 98.9762 14.4825C98.1876 14.3006 97.5067 14.2337 96.984 14.2721C96.2942 14.3234 95.8093 14.9396 95.8093 15.3992V16.4584C94.8726 14.9898 93.3661 13.9678 92.3637 13.6715C89.6639 12.872 86.8624 13.5922 84.7218 16.547C83.3259 18.4737 82.1958 20.6097 81.6141 25.3382C81.4461 26.7046 81.3718 27.9842 81.3815 29.1802C80.8248 32.5766 78.3662 36.4911 76.3551 36.4911C75.1783 36.4911 74.0575 34.2138 74.0575 29.3603C74.0575 22.8953 74.4586 13.6904 74.5264 12.8033C74.5264 12.8033 77.0674 12.7602 77.5595 12.7545C78.8269 12.7406 79.9749 12.7705 81.663 12.6843C82.5098 12.6413 83.3255 9.60953 82.4516 9.23432C82.0555 9.0645 79.2562 8.91569 78.1464 8.89219C77.2133 8.8711 74.6156 8.6793 74.6156 8.6793C74.6156 8.6793 74.8486 2.56954 74.9028 1.92412C74.9489 1.38619 74.2513 1.10923 73.8512 0.941171C72.8785 0.530708 72.0082 0.334182 70.9766 0.122007C69.5514 -0.171326 68.9048 0.115598 68.7785 1.31569C68.5883 3.13703 68.4898 8.47174 68.4898 8.47174C67.444 8.47174 63.8713 8.26777 62.8251 8.26777C61.8531 8.26777 60.804 12.4384 62.1479 12.4896C63.694 12.5494 66.3885 12.6011 68.1747 12.6548C68.1747 12.6548 68.0952 22.0113 68.0952 24.8999C68.0952 25.2073 68.0979 25.5032 68.0984 25.7904C67.1153 30.9026 63.6526 33.6641 63.6526 33.6641C64.3963 30.2821 62.8772 27.7423 60.1411 25.5924C59.133 24.8002 57.1429 23.3004 54.9163 21.6568C54.9163 21.6568 56.2059 20.3887 57.3495 17.8376C58.1599 16.0305 58.1949 13.9625 56.2059 13.5064C52.9195 12.7524 50.2097 15.1604 49.4014 17.7311C48.7752 19.7226 49.1092 21.2004 50.336 22.7355C50.4256 22.8476 50.5226 22.9623 50.6229 23.0776C49.881 24.5042 48.8619 26.4248 47.9987 27.9143C45.603 32.0496 43.7931 35.3206 42.4254 35.3206C41.332 35.3206 41.3467 31.9997 41.3467 28.8905C41.3467 26.21 41.5451 22.1801 41.7035 18.0078C41.756 16.6279 41.0644 15.8418 39.9051 15.1298C39.2007 14.6973 37.6974 13.8468 36.8267 13.8468C35.5235 13.8468 31.7636 14.0237 28.211 24.2763C27.7633 25.5685 26.8837 27.9232 26.8837 27.9232L26.9594 15.594C26.9594 15.305 26.8051 15.0255 26.4518 14.8343C25.8531 14.51 24.2542 13.8468 22.8324 13.8468C22.155 13.8468 21.817 14.1611 21.817 14.7877L21.693 34.0767C21.693 35.5423 21.7313 37.2521 21.8765 37.9999C22.0212 38.7487 22.2556 39.3577 22.546 39.7201C22.8359 40.0818 23.1713 40.3578 23.7242 40.4716C24.2388 40.5773 27.0569 40.9384 27.2033 39.864C27.3788 38.5763 27.3855 37.1836 28.8653 31.9895C31.1689 23.9028 34.1724 19.9572 35.5844 18.556C35.8313 18.3111 36.1132 18.2965 36.0996 18.6973C36.0393 20.4702 35.8273 24.9004 35.6847 28.664C35.3022 38.7361 37.1387 40.603 39.7633 40.603C41.7711 40.603 44.6015 38.6126 47.6357 33.5741C49.5273 30.4341 51.3639 27.3554 52.6834 25.1364C53.603 25.9857 54.6349 26.8998 55.6662 27.8762C58.0627 30.1455 58.8495 32.3017 58.3274 34.3473C57.9281 35.9111 56.4245 37.5227 53.7482 35.9563C52.9682 35.4993 52.6352 35.1462 51.8509 34.631C51.4295 34.3543 50.7861 34.2715 50.4004 34.5615C49.3984 35.3152 48.8254 36.2739 48.4982 37.4608C48.1799 38.6158 49.3392 39.2263 50.541 39.7603C51.5758 40.2199 53.7999 40.6364 55.2184 40.6838C60.745 40.8682 65.1722 38.0215 68.2541 30.6786C68.8058 37.0201 71.1538 40.6087 75.2331 40.6087C77.9604 40.6087 80.6947 37.0916 81.8905 33.6317C82.2338 35.0421 82.7419 36.2685 83.3981 37.3056C86.5414 42.2744 92.6393 41.205 95.7024 36.9857C96.6494 35.682 96.7936 35.2135 96.7936 35.2135C97.2403 39.1975 100.456 40.5895 102.297 40.5895C104.36 40.5895 106.489 39.6169 107.981 36.2651C108.156 36.6289 108.347 36.9762 108.555 37.3055C111.698 42.2743 117.796 41.2049 120.859 36.9856C121.004 36.7877 121.129 36.6081 121.239 36.447L121.329 39.0639C121.329 39.0639 119.581 40.6631 118.509 41.6442C113.788 45.9654 110.198 49.2439 109.934 53.0616C109.595 57.9296 113.552 59.7389 116.546 59.976C119.725 60.2277 122.448 58.4755 124.122 56.0232C125.594 53.8648 126.557 49.2193 126.486 44.6311C126.458 42.7938 126.412 40.4576 126.375 37.9535C128.035 36.0311 129.904 33.6014 131.625 30.7573C133.501 27.6578 135.512 23.4955 136.541 20.2562C136.541 20.2562 138.288 20.2711 140.152 20.1494C140.748 20.1106 140.919 20.232 140.809 20.6681C140.676 21.195 138.454 29.7455 140.482 35.4416C141.87 39.3409 144.999 40.5954 146.854 40.5954C149.026 40.5954 151.103 38.9592 152.217 36.5295C152.351 36.8004 152.491 37.0625 152.644 37.3045C155.788 42.2732 161.864 41.1974 164.949 36.9845C165.645 36.034 166.04 35.2123 166.04 35.2123C166.702 39.3355 169.916 40.6093 171.757 40.6093C173.674 40.6093 175.494 39.825 176.971 36.3394C177.032 37.8741 177.129 39.129 177.283 39.5247C177.376 39.7666 177.921 40.0704 178.318 40.2171C180.072 40.866 181.861 40.5591 182.523 40.4256C182.981 40.3331 183.339 39.966 183.388 39.0183C183.516 36.5299 183.437 32.3489 184.194 29.2417C185.463 24.027 186.647 22.0042 187.208 21.0027C187.523 20.4416 187.877 20.3491 187.89 20.9429C187.917 22.1444 187.977 25.6728 188.468 30.4133C188.83 33.8998 189.312 35.9606 189.683 36.6128C190.741 38.4779 192.047 38.5662 193.112 38.5662C193.788 38.5662 195.204 38.3796 195.077 37.1927C195.016 36.6142 195.124 33.0388 196.375 27.9013C197.192 24.5464 198.555 21.515 199.046 20.4067C199.227 19.998 199.311 20.3202 199.309 20.383C199.205 22.6935 198.973 30.2507 199.916 34.3839C201.195 39.9832 204.895 40.6097 206.184 40.6097C208.936 40.6097 211.187 38.521 211.945 33.0251C212.128 31.7024 211.858 30.6812 211.047 30.6812" fill="#262626"/>
</svg>
